# xmcd
#
# Track frame offsets: 
#        150
#        18710
#        35527
#        59697
#        77902
#        91070
#        119227
#        139562
#        165515
#        188315
#        207037
#        228977
#        249090
#
# Disc length: 3478 seconds
#
# Revision: 12
# Processed by: cddbd v1.5.2PL0 Copyright (c) Steve Scherf et al.
# Submitted via: ExactAudioCopy v0.95a5
#
DISCID=a30d940d
DTITLE=Ulla Van Daelen - Sunflower
DYEAR=1997
DGENRE=New Age
TTITLE0=Sunflower
TTITLE1=Ring Of Kerry
TTITLE2=Bretagne
TTITLE3=Loreley (Twinling Stars)
TTITLE4=Caravane
TTITLE5=Alameda
TTITLE6=Dancin' With Satie
TTITLE7=Afternoon With Paco
TTITLE8=A Day Out
TTITLE9=Le Desir
TTITLE10=Nashville
TTITLE11=Aquarius
TTITLE12=What Else
EXTD=YEAR: 1997
EXTT0=
EXTT1=
EXTT2=
EXTT3=
EXTT4=
EXTT5=
EXTT6=
EXTT7=
EXTT8=
EXTT9=
EXTT10=
EXTT11=
EXTT12=
PLAYORDER=
